<?xml version="1.0" encoding="utf-8"?>
<!-- Generator: Adobe Illustrator 27.5.0, SVG Export Plug-In . SVG Version: 6.00 Build 0)  -->
<svg version="1.1" xmlns="http://www.w3.org/2000/svg" xmlns:xlink="http://www.w3.org/1999/xlink" x="0px" y="0px"
	 viewBox="0 0 500 500" style="enable-background:new 0 0 500 500;" xml:space="preserve">
<g id="Background_Simple">
	<g>
		<path style="fill:#92E3A9;" d="M273.587,16.87c43.479,8.747,92.895,32.934,113.094,74.871
			c30.526,63.363,85.439,62.723,99.551,182.71c2.202,18.708,2.34,36.303,0.695,52.75c-0.883,8.841-2.293,17.355-4.18,25.523
			c-17.052,74.147-73.307,120.41-137.772,133.825c-84.783,17.659-135.042-35.421-165.085-70.339
			C149.847,381.293,49.996,349.4,35.196,231.554c-2.249-17.968-2.661-36.189-0.745-54.216c4.358-41.148,21.547-85.02,52.33-113.844
			c2.313-2.164,4.699-4.257,7.147-6.288C141.832,17.558,214.31,4.941,273.587,16.87z"/>
		<path style="opacity:0.7;fill:#FFFFFF;" d="M273.587,16.87c43.479,8.747,92.895,32.934,113.094,74.871
			c30.526,63.363,85.439,62.723,99.551,182.71c2.202,18.708,2.34,36.303,0.695,52.75c-0.883,8.841-2.293,17.355-4.18,25.523
			c-17.052,74.147-73.307,120.41-137.772,133.825c-84.783,17.659-135.042-35.421-165.085-70.339
			C149.847,381.293,49.996,349.4,35.196,231.554c-2.249-17.968-2.661-36.189-0.745-54.216c4.358-41.148,21.547-85.02,52.33-113.844
			c2.313-2.164,4.699-4.257,7.147-6.288C141.832,17.558,214.31,4.941,273.587,16.87z"/>
	</g>
</g>
<g id="Table">
	
		<line style="fill:none;stroke:#263238;stroke-linecap:round;stroke-linejoin:round;stroke-miterlimit:10;" x1="493.529" y1="312.368" x2="27.206" y2="265.428"/>
</g>
<g id="Plant_1_">
	<g>
		<path style="fill:#263238;" d="M79.781,159.861c7.148-2.904,21.221-7.372,22.785-4.691c1.564,2.681,7.148,8.042,7.148,8.042
			s3.127-8.935,5.808-9.382c2.681-0.447,14.073-0.67,16.53,0c2.457,0.67-6.478,6.925-14.073,11.616
			c-1.835,1.133-3.523,1.975-5.087,2.642c0.385,1.895,1.338,7.32,0.77,12.247c-0.715,6.204-0.817,22.924,2.193,33.457
			c3.299,11.549,8.271,50.088,6.063,63.33l-2.516-0.419c2.161-12.961-2.75-50.836-6.001-62.21
			c-3.106-10.874-3.009-28.075-2.273-34.451c0.483-4.192-0.262-8.947-0.653-11.015c-3.722,1.312-6.639,1.799-9.026,3.343
			c-3.798,2.457-5.138,4.468-5.138,4.468s-0.447-2.681-1.564-2.457c-1.117,0.224-16.53,3.798-19.211,3.351
			C72.856,177.284,72.633,162.765,79.781,159.861z"/>
		<g>
			<path style="fill:#263238;stroke:#263238;stroke-linecap:round;stroke-linejoin:round;stroke-miterlimit:10;" d="
				M129.059,272.695c0.059-0.291,5.83-29.164,7.598-38.891c0.904-4.967,2.141-18.399,3.337-31.389
				c1.165-12.644,2.368-25.72,3.135-29.334c1.468-6.921,5.643-11.16,5.686-11.202l-1.803-1.803
				c-0.193,0.193-4.754,4.822-6.378,12.476c-0.797,3.761-1.954,16.326-3.178,29.629c-1.192,12.935-2.422,26.311-3.305,31.167
				c-1.765,9.705-7.532,38.556-7.591,38.846L129.059,272.695z"/>
		</g>
		<g>
			<path style="fill:#263238;stroke:#263238;stroke-linecap:round;stroke-linejoin:round;stroke-miterlimit:10;" d="M121.394,271.59
				l2.551-0.077c-0.002-0.074-0.229-7.471-0.673-13.899c-0.429-6.238-0.243-69.144,0.003-101.317
				c0.222-28.933,0.224-67.089,0.224-67.47h-2.551c0,0.382-0.003,38.528-0.224,67.451c-0.208,27.322-0.458,94.813,0.003,101.513
				C121.168,264.167,121.393,271.516,121.394,271.59z"/>
		</g>
		<g>
			<path style="fill:#263238;stroke:#263238;stroke-linecap:round;stroke-linejoin:round;stroke-miterlimit:10;" d="
				M119.851,271.104l2.511-0.446c-2.025-11.395-12.493-51.556-26.544-73.292c-14.157-21.901-26.071-37.673-26.19-37.829
				l-2.033,1.539c0.117,0.156,11.979,15.858,26.081,37.674C107.516,220.162,117.849,259.84,119.851,271.104z"/>
		</g>
		<g>
			<path style="fill:#92E3A9;stroke:#263238;stroke-linecap:round;stroke-linejoin:round;stroke-miterlimit:10;" d="M67.474,151.789
				c0,0,0.61-8.848,9.458-13.12c8.848-4.271,13.73-5.492,14.95,6.102c1.22,11.594-0.305,22.273-0.305,22.273
				s-6.712-11.899-11.899-13.425c-5.187-1.525-8.848,2.441-6.102,3.967c2.746,1.525,11.594,7.018,14.645,9.153
				c3.051,2.136,2.441,3.051,0.305,7.018c-2.136,3.967-6.407,14.035-6.407,14.035s-3.966-17.391-5.797-20.442
				c-1.831-3.051-8.238,0-6.102,5.187c2.136,5.187,7.933,18.917,7.933,18.917s-7.933,8.543-11.899,10.984
				c-3.966,2.441-7.018,11.289-7.018,11.289s-2.746-2.746-10.069-5.492c-7.323-2.746-17.696-7.323-17.086-10.374
				c0.61-3.051,3.356-6.712,9.153-14.34c5.797-7.628,14.645-14.95,10.984-15.255c-3.661-0.305-23.188,8.848-25.019,13.12
				c-1.831,4.271,0.61,12.51,0.61,12.51s-5.797-7.933-5.797-12.204c0-4.271,2.441-7.628,2.441-7.628s12.509-9.458,17.696-12.204
				s5.492-5.797,3.966-5.797s-17.696,4.272-20.747,8.238c-3.051,3.967-3.051,6.407-3.356,7.323
				c-0.305,0.915,3.661-21.358,8.848-25.934c5.187-4.577,16.171-8.238,22.578-5.797c6.407,2.441,9.153,4.271,10.069,6.102
				C64.423,147.823,67.474,151.789,67.474,151.789z"/>
			<path style="fill:none;stroke:#263238;stroke-linecap:round;stroke-linejoin:round;stroke-miterlimit:10;" d="M44.83,184.143
				c0,0,6.169-7.761,7.363-5.174c1.194,2.587-8.159,14.726-9.154,13.731C42.044,191.705,42.044,187.924,44.83,184.143z"/>
			<g>
				<path style="fill:none;stroke:#263238;stroke-linecap:round;stroke-linejoin:round;stroke-miterlimit:10;" d="M64.332,153.297
					c0,0-20.497-3.781-26.865-1.791"/>
				<path style="fill:none;stroke:#263238;stroke-linecap:round;stroke-linejoin:round;stroke-miterlimit:10;" d="M63.735,158.272
					c0,0-16.716,4.179-23.283,9.353"/>
				<path style="fill:none;stroke:#263238;stroke-linecap:round;stroke-linejoin:round;stroke-miterlimit:10;" d="M64.133,159.864
					c0,0,9.353,1.194,13.93,4.776c4.577,3.582,4.975,4.776,4.975,4.776"/>
				<path style="fill:none;stroke:#263238;stroke-linecap:round;stroke-linejoin:round;stroke-miterlimit:10;" d="M81.844,147.924
					c0,0-2.189,0.398-6.567,2.786c-4.378,2.388-8.955,3.582-8.955,3.582s-7.363,11.94-8.955,22.487
					c-1.592,10.547-0.199,28.656,0,29.452"/>
				<path style="fill:none;stroke:#263238;stroke-linecap:round;stroke-linejoin:round;stroke-miterlimit:10;" d="M59.755,169.217
					c0,0,4.776,7.96,7.363,14.726"/>
			</g>
		</g>
		<g>
			<path style="fill:#92E3A9;stroke:#263238;stroke-linecap:round;stroke-linejoin:round;stroke-miterlimit:10;" d="M121.247,82.651
				c0,0,1.393-4.975,1.393-8.756c0-3.781-3.98-8.955,2.587-11.343c6.567-2.388,19.105-8.358,21.493-11.542
				c2.388-3.184,2.587-5.771,8.159-6.567c5.572-0.796,10.348-0.597,17.512,3.781c7.164,4.378,8.955,9.552,8.955,9.552
				s-2.786-1.99-18.706,0.995c-15.92,2.985-24.278,12.736-20.099,13.134c4.179,0.398,26.667-9.751,32.239-10.945
				c5.572-1.194,8.756-1.791,12.139,1.791c3.383,3.582,4.378,11.542,4.378,11.542s-9.353-6.368-20.298-5.373
				c-10.945,0.995-28.059,9.751-25.671,10.746c2.388,0.995,16.915-5.771,27.264-4.179c10.348,1.592,16.716,2.587,17.512,6.567
				c0.796,3.98-2.786,6.567-2.786,6.567s2.189-3.781-5.771-7.96c-7.96-4.179-20.895-3.184-20.895-2.189
				c0,0.995,7.363,0.199,12.537,2.786c5.174,2.587,11.94,6.368,9.751,7.761c-2.189,1.393-7.164,4.577-8.159,7.363
				c-0.995,2.786-0.796,8.955-1.592,6.965c-0.796-1.99-1.791-7.96-3.582-9.154c-1.791-1.194-21.493-0.398-21.493-0.398
				s-8.159-4.179-9.154-6.169c-0.995-1.99-1.393-5.373-5.97-4.378c-4.577,0.995-4.378,2.985-1.791,7.363
				c2.587,4.378,9.353,9.353,9.353,9.353s-10.945-5.97-15.92-6.567c-4.975-0.597-7.761-2.587-6.766-4.776
				c0.995-2.189,2.786-4.179-0.199-4.577s-7.363-0.398-7.761,1.99c-0.398,2.388,3.582,4.975,3.582,4.975s-16.119-4.378-19.9-7.562
				c-3.781-3.184-6.965-5.373-5.771-6.965c1.194-1.592,7.363-0.199,7.363-0.199s5.771-4.776,12.537-1.99
				c6.766,2.786,9.154,6.567,10.348,7.562C119.257,82.85,121.247,82.651,121.247,82.651z"/>
			<path style="fill:none;stroke:#263238;stroke-linecap:round;stroke-linejoin:round;stroke-miterlimit:10;" d="M149.307,56.382
				c-0.597-0.199-8.756,8.159-12.935,14.925c-4.179,6.766-15.124,11.343-15.124,11.343s15.124-1.194,20.497-0.995
				c5.373,0.199,19.104,2.985,24.079,6.567"/>
			<path style="fill:none;stroke:#263238;stroke-linecap:round;stroke-linejoin:round;stroke-miterlimit:10;" d="M118.063,81.855
				c0,0-16.045-3.489-17.725-1.045"/>
			<path style="fill:none;stroke:#263238;stroke-linecap:round;stroke-linejoin:round;stroke-miterlimit:10;" d="M129.048,82.184
				c0,0,10.69-3.818,15.577-6.414c4.887-2.596,20.616-10.537,32.833-10.384"/>
		</g>
		<g>
			<path style="fill:#92E3A9;stroke:#263238;stroke-linecap:round;stroke-linejoin:round;stroke-miterlimit:10;" d="
				M146.348,154.946c0,0-7.148-9.605-5.138-10.946s22.115,3.797,27.252,5.361c5.138,1.564,14.52,1.787,25.019,3.574
				c10.499,1.787,11.839,4.914,14.743,5.138c2.904,0.223,4.915,0,6.702,0.894c1.787,0.894,1.787,0.894,1.787,0.894
				s-4.244,1.117-6.255,2.234c-2.01,1.117-8.488,1.34-9.159,2.234c-0.67,0.893-10.276,5.138-21.668,8.042
				c-11.392,2.904-27.252-8.712-31.72-11.393c-4.468-2.68-8.265-4.914-8.712-7.148C138.753,151.596,146.348,154.946,146.348,154.946
				z"/>
			<path style="fill:none;stroke:#263238;stroke-linecap:round;stroke-linejoin:round;stroke-miterlimit:10;" d="M146.348,154.946
				c0,0,4.468,4.691,6.701,5.138c2.234,0.447,15.86,4.021,26.359,4.021c10.499,0,27.923-2.904,27.923-2.904"/>
			<path style="fill:none;stroke:#263238;stroke-linecap:round;stroke-linejoin:round;stroke-miterlimit:10;" d="M157.294,150.479
				c0,0-2.68,4.914-4.468,6.478c-1.787,1.564-1.787,1.564-1.787,1.564"/>
			<path style="fill:none;stroke:#263238;stroke-linecap:round;stroke-linejoin:round;stroke-miterlimit:10;" d="M157.071,161.201
				c0,0,9.159-5.361,13.85-6.478c4.691-1.117,8.042-1.117,8.042-1.117"/>
			<path style="fill:none;stroke:#263238;stroke-linecap:round;stroke-linejoin:round;stroke-miterlimit:10;" d="M170.92,164.105
				c0,0,5.361-2.904,13.85-4.468c8.488-1.564,10.499-2.01,10.499-2.01"/>
			<path style="fill:none;stroke:#263238;stroke-linecap:round;stroke-linejoin:round;stroke-miterlimit:10;" d="M158.858,161.648
				c0,0,4.915,4.914,10.722,6.478"/>
		</g>
		<g>
			<path style="fill:#92E3A9;stroke:#263238;stroke-linecap:round;stroke-linejoin:round;stroke-miterlimit:10;" d="M89.092,126.893
				c0,0-9.212-6.653-5.885-8.444c3.326-1.791,24.309,3.071,45.036,6.397c20.727,3.326,26.612,7.932,30.194,11.515
				c3.582,3.582,4.094,8.956,4.094,8.956s-6.909,0.768-8.188,1.535c-1.279,0.768-2.815-5.118-14.329-11.003
				c-11.515-5.885-19.191-9.724-14.074-3.583c5.118,6.141,11.515,12.794,16.121,14.074c4.606,1.279,4.606,1.279,4.606,1.279
				s-12.027,4.35-14.586,3.071c-2.559-1.279-18.936-23.03-20.982-22.774c-2.047,0.256-2.303,1.791,1.279,6.141
				c3.582,4.35,11.003,10.235,11.003,10.235s-16.121,0.512-16.888-0.768c-0.768-1.279-10.491-17.656-11.259-14.33
				c-0.768,3.326,0,4.35,1.535,6.397c1.535,2.047,4.862,5.885,4.862,5.885s-29.939,4.606-30.45,1.791
				c-0.512-2.815,1.791-8.7,7.165-11.259C83.719,129.452,89.092,126.893,89.092,126.893z"/>
			<path style="fill:none;stroke:#263238;stroke-linecap:round;stroke-linejoin:round;stroke-miterlimit:10;" d="M89.092,126.893
				c0,0,16.633-3.071,25.844-1.791"/>
		</g>
		<g>
			<path style="fill:#263238;" d="M133.038,270.391c0.025-0.074,2.523-7.595,7.389-24.625c4.89-17.117,6.505-34.24,6.521-34.411
				l-2.541-0.234c-0.015,0.169-1.61,17.064-6.434,33.944c-4.847,16.966-7.331,24.445-7.354,24.519L133.038,270.391z"/>
		</g>
		<g>
			<path style="fill:#92E3A9;stroke:#263238;stroke-linecap:round;stroke-linejoin:round;stroke-miterlimit:10;" d="
				M121.334,205.961c0,0,3.838-10.491,11.515-10.235c7.676,0.256,9.723,12.538,5.118,23.285
				c-4.606,10.747-15.609,17.144-21.238,20.471c-5.63,3.326-18.168,11.259-20.215,13.05c-2.047,1.791-3.071-6.397-5.885-13.05
				c-2.815-6.653-4.606-27.38,1.535-37.359c6.141-9.98,18.679-17.656,23.797-13.562
				C121.078,192.656,121.334,205.961,121.334,205.961z"/>
			<path style="fill:none;stroke:#263238;stroke-linecap:round;stroke-linejoin:round;stroke-miterlimit:10;" d="M119.799,209.032
				c0,0,1.023,2.815-4.862,9.979c-5.885,7.165-15.353,14.586-16.377,22.518"/>
			<path style="fill:none;stroke:#263238;stroke-linecap:round;stroke-linejoin:round;stroke-miterlimit:10;" d="M117.496,208.264
				c0,0-18.424-2.815-23.541-0.256"/>
			<path style="fill:none;stroke:#263238;stroke-linecap:round;stroke-linejoin:round;stroke-miterlimit:10;" d="M120.311,212.103
				c0,0,6.909,6.141,7.932,12.282"/>
			<path style="fill:none;stroke:#263238;stroke-linecap:round;stroke-linejoin:round;stroke-miterlimit:10;" d="M113.401,221.57
				c0,0,2.303,6.141,1.791,10.491"/>
			<path style="fill:none;stroke:#263238;stroke-linecap:round;stroke-linejoin:round;stroke-miterlimit:10;" d="M107.004,226.688
				c0,0-9.724,0.768-11.515,5.118"/>
		</g>
		<g>
			<path style="fill:#92E3A9;stroke:#263238;stroke-linecap:round;stroke-linejoin:round;stroke-miterlimit:10;" d="M147.69,206.985
				c0,0-6.653-3.327-3.071-7.677c3.582-4.35,9.98-2.559,16.121-0.512c6.141,2.047,5.63,4.094,22.518,4.35
				c16.888,0.256,22.774,3.327,22.774,3.327s-8.7,0-14.074,4.094c-5.374,4.094-33.009,8.7-39.918,9.724
				c-6.909,1.023-16.377-2.815-17.4-8.444C133.617,206.217,147.69,206.985,147.69,206.985z"/>
			<path style="fill:none;stroke:#263238;stroke-linecap:round;stroke-linejoin:round;stroke-miterlimit:10;" d="M194.005,206.729
				c0,0-2.303,1.023-16.633,2.303c-14.33,1.279-26.612-1.024-26.612-1.024s6.98-3.025,12.118-4.142"/>
			<path style="fill:none;stroke:#263238;stroke-linecap:round;stroke-linejoin:round;stroke-miterlimit:10;" d="M173.601,206.1
				c0,0-8.042,1.787-11.616,3.574c0,0,7.148,2.681,14.073,2.01"/>
			<path style="fill:none;stroke:#263238;stroke-linecap:round;stroke-linejoin:round;stroke-miterlimit:10;" d="M150.761,208.008
				c0,0,3.183,5.91,6.087,7.027"/>
		</g>
		<path style="fill:#263238;stroke:#263238;stroke-linecap:round;stroke-linejoin:round;stroke-miterlimit:10;" d="M169.99,265.9
			H95.239c0,0-9.153,25.629-5.492,42.715c0.296,1.38,0.647,2.761,1.043,4.135c5.196,18.028,21.842,30.342,40.603,30.342h2.12
			c22.189,0,41.034-17.108,42.22-39.265c0.029-0.538,0.047-1.078,0.055-1.62C176.093,280.545,169.99,265.9,169.99,265.9z"/>
		
			<ellipse style="fill:#263238;stroke:#263238;stroke-linecap:round;stroke-linejoin:round;stroke-miterlimit:10;" cx="132.557" cy="267.111" rx="37.433" ry="8.642"/>
	</g>
</g>
<g id="Mouse">
	<g>
		<path style="fill:none;stroke:#263238;stroke-width:2;stroke-linecap:round;stroke-linejoin:round;stroke-miterlimit:10;" d="
			M437.866,417.644c0,0-3.544-4.29-10.445-11.004c-6.901-6.714-0.933-7.087,9.885-10.258c10.818-3.171,22.754-10.631,13.615-23.127
			c-9.139-12.496-28.163-10.818-30.215-9.512"/>
		<path style="fill:#FFFFFF;stroke:#263238;stroke-linecap:round;stroke-linejoin:round;stroke-miterlimit:10;" d="M433.762,419.323
			c0,0,0.373-3.73,4.103-3.544s3.917,4.849,3.917,4.849L433.762,419.323z"/>
		<path style="fill:#FFFFFF;stroke:#263238;stroke-linecap:round;stroke-linejoin:round;stroke-miterlimit:10;" d="M428.91,418.043
			c-10.268,0.147-20.01,5.071-25.83,13.532c-0.224,0.326-0.442,0.656-0.652,0.991c-5.036,8.02-5.968,13.429-1.306,21.822
			c4.663,8.393,20.889,8.952,32.08,6.714c11.191-2.238,18.651-20.516,20.703-24.246c2.052-3.73,4.103-8.766,1.306-12.496
			c-2.798-3.73-10.444-6.341-22.568-6.341C431.295,418.017,430.053,418.026,428.91,418.043z"/>
		<path style="fill:#FFFFFF;stroke:#263238;stroke-linecap:round;stroke-linejoin:round;stroke-miterlimit:10;" d="M453.905,436.855
			c1.456-2.647,2.902-5.949,2.626-8.978c-1.69,0.895-4.236,2.637-7.288,5.994c-5.595,6.155-10.631,22.195-27.23,23.873
			c-16.062,1.624-22.693-7.752-23.106-8.361c0.5,1.57,1.224,3.217,2.217,5.004c4.663,8.393,20.889,8.952,32.08,6.714
			C444.393,458.863,451.854,440.585,453.905,436.855z"/>
	</g>
</g>
<g id="Device">
	<g>
		<polygon style="fill:#DBDBDB;stroke:#263238;stroke-linecap:round;stroke-linejoin:round;stroke-miterlimit:10;" points="
			383.723,414.073 446.572,334.294 446.572,326.177 383.027,399.23 		"/>
		<polygon style="fill:#263238;stroke:#263238;stroke-linecap:round;stroke-linejoin:round;stroke-miterlimit:10;" points="
			165.258,367.69 165.671,379.637 383.723,414.073 383.955,400.853 		"/>
		<polygon style="fill:#FFFFFF;stroke:#263238;stroke-linecap:round;stroke-linejoin:round;stroke-miterlimit:10;" points="
			256.047,271.413 159.262,325.44 385.647,352.951 450.281,288.317 		"/>
		<path style="fill:#DBDBDB;stroke:#263238;stroke-linecap:round;stroke-linejoin:round;stroke-miterlimit:10;" d="M263.34,282.682
			c0,0-34.471,30.825-34.14,33.146c0.331,2.32,2.32,5.966,7.624,7.955c5.303,1.989,77.229,9.944,82.864,10.275
			c5.635,0.331,38.449-5.635,49.056-12.927c10.607-7.292,10.607-4.972,6.961-12.595c-3.646-7.624-23.533-16.241-23.533-16.241
			L263.34,282.682z"/>
		<path style="fill:#263238;stroke:#263238;stroke-linecap:round;stroke-linejoin:round;stroke-miterlimit:10;" d="M255.053,280.031
			c0,0,6.961,19.224,35.466,22.208c28.505,2.983,41.432-6.961,41.432-6.961L255.053,280.031z"/>
		<g>
			<path style="fill:#B8B8B8;stroke:#263238;stroke-linecap:round;stroke-linejoin:round;stroke-miterlimit:10;" d="M420.45,244.896
				c0,0-3.646,39.443-4.64,41.101c-0.994,1.657-4.309,2.652-6.961,3.314c-2.652,0.663-50.713,10.938-50.713,10.938l0.331-9.612
				L420.45,244.896z"/>
			<path style="fill:#263238;stroke:#263238;stroke-linecap:round;stroke-linejoin:round;stroke-miterlimit:10;" d="M358.136,300.25
				c0,0-141.532-17.236-158.767-18.893l-0.331-7.955l159.43,17.236L358.136,300.25z"/>
		</g>
		<path style="fill:#E8E8E8;stroke:#263238;stroke-linecap:round;stroke-linejoin:round;stroke-miterlimit:10;" d="M182.464,69.888
			L165.891,270.75c0,0,46.072,7.955,96.454,14.584c50.381,6.629,124.628,7.623,124.628,7.623L409.18,64.584
			c0,0-89.493-4.309-128.605-2.983C241.463,62.927,182.464,69.888,182.464,69.888z"/>
		<path style="fill:#92E3A9;stroke:#263238;stroke-linecap:round;stroke-linejoin:round;stroke-miterlimit:10;" d="M198.706,92.427
			c0,0-13.59,112.364-13.258,144.515l180.312,13.921c0,0,9.281-141.532,11.932-160.093l-97.78-1.326L198.706,92.427z"/>
		<path style="fill:#263238;stroke:#263238;stroke-linecap:round;stroke-linejoin:round;stroke-miterlimit:10;" d="M198.706,92.427
			c0,0-13.59,112.364-13.258,144.515l4.222,0.326c-0.073-5.126,0.007-17.639,1.413-43.415c1.989-36.46,10.938-97.78,10.938-97.78
			s37.123-2.652,76.898-3.646c37.323-0.933,91.863,0.761,98.445,0.973c0.118-1.035,0.228-1.93,0.328-2.63l-97.78-1.326
			L198.706,92.427z"/>
		
			<ellipse style="fill:#E8E8E8;stroke:#263238;stroke-linecap:round;stroke-linejoin:round;stroke-miterlimit:10;" cx="320.516" cy="278.871" rx="13.755" ry="14.418"/>
		
			<circle style="fill:#E8E8E8;stroke:#263238;stroke-linecap:round;stroke-linejoin:round;stroke-miterlimit:10;" cx="325.653" cy="283.014" r="3.646"/>
		<path style="fill:#E8E8E8;stroke:#263238;stroke-linecap:round;stroke-linejoin:round;stroke-miterlimit:10;" d="M355.153,280.694
			c0,1.831-1.484,3.315-3.315,3.315s-3.315-1.484-3.315-3.315s1.484-3.315,3.315-3.315S355.153,278.863,355.153,280.694z"/>
		<path style="fill:#E8E8E8;stroke:#263238;stroke-linecap:round;stroke-linejoin:round;stroke-miterlimit:10;" d="M367.417,282.351
			c0,1.83-1.484,3.314-3.315,3.314s-3.315-1.484-3.315-3.314c0-1.831,1.484-3.315,3.315-3.315S367.417,280.52,367.417,282.351z"/>
		<polygon style="fill:#FFFFFF;stroke:#263238;stroke-linecap:round;stroke-linejoin:round;stroke-miterlimit:10;" points="
			409.18,64.584 418.792,88.781 395.259,292.957 386.973,292.957 		"/>
		<path style="fill:#FFFFFF;stroke:#263238;stroke-linecap:round;stroke-linejoin:round;stroke-miterlimit:10;" d="M414.483,127.23
			l25.191,24.528l-7.623,88.499c0,0-9.281,6.96-20.219,19.224c-10.938,12.264-14.915,16.904-14.915,16.904L414.483,127.23z"/>
		<polygon style="fill:#FFFFFF;stroke:#263238;stroke-linecap:round;stroke-linejoin:round;stroke-miterlimit:10;" points="
			385.647,352.951 384.827,401.155 449.618,325.109 450.281,288.317 		"/>
		<polygon style="fill:#E8E8E8;stroke:#263238;stroke-linecap:round;stroke-linejoin:round;stroke-miterlimit:10;" points="
			384.827,401.155 160.588,367.535 159.262,325.44 385.647,352.951 		"/>
		<polygon style="fill:#92E3A9;stroke:#263238;stroke-linecap:round;stroke-linejoin:round;stroke-miterlimit:10;" points="
			176.281,344.383 176.48,351.559 183.656,352.755 183.855,345.778 		"/>
		<g>
			<polygon style="fill:#263238;stroke:#263238;stroke-linecap:round;stroke-linejoin:round;stroke-miterlimit:10;" points="
				281.135,357.631 232.599,351.147 232.286,348.277 281.521,354.656 			"/>
		</g>
		<g>
			<polygon style="fill:#263238;stroke:#263238;stroke-linecap:round;stroke-linejoin:round;stroke-miterlimit:10;" points="
				371.43,369.192 350.286,366.415 350.488,363.802 334.989,361.512 331.809,364.128 291.902,359.027 292.282,356.051 
				330.903,360.987 334.111,358.349 352.471,361.504 352.273,364.073 371.821,366.217 			"/>
		</g>
		<path style="fill:#FFFFFF;stroke:#263238;stroke-linecap:round;stroke-linejoin:round;stroke-miterlimit:10;" d="M314.816,356.841
			l10.879,0.932c0,0-1.223,2.649-1.528,2.649c-0.306,0-10.391-0.408-10.391-0.408L314.816,356.841z"/>
		<polygon style="fill:#FFFFFF;stroke:#263238;stroke-linecap:round;stroke-linejoin:round;stroke-miterlimit:10;" points="
			325.695,357.773 329.465,355.939 328.65,358.079 324.167,360.422 		"/>
		<path style="fill:#FFFFFF;stroke:#263238;stroke-linecap:round;stroke-linejoin:round;stroke-miterlimit:10;" d="M329.465,355.939
			l-13.244-1.63c0,0-0.815-1.936-2.241-2.751c-1.426-0.815-3.464-1.019-5.297,2.241l-0.611,1.63l6.745,1.411l10.879,0.932
			L329.465,355.939z"/>
		<path style="fill:#FFFFFF;stroke:#263238;stroke-linecap:round;stroke-linejoin:round;stroke-miterlimit:10;" d="M314.816,356.841
			c0,2.257-1.517,4.086-3.389,4.086c-1.872,0-3.389-1.829-3.389-4.086s1.517-4.086,3.389-4.086
			C313.299,352.755,314.816,354.584,314.816,356.841z"/>
		<polyline style="fill:none;stroke:#263238;stroke-linecap:round;stroke-linejoin:round;stroke-miterlimit:10;" points="
			331.649,365.525 331.649,375.111 334.409,363.346 		"/>
		<polyline style="fill:none;stroke:#263238;stroke-linecap:round;stroke-linejoin:round;stroke-miterlimit:10;" points="
			331.649,375.111 352.418,378.16 352.563,367.849 		"/>
		
			<line style="fill:none;stroke:#263238;stroke-linecap:round;stroke-linejoin:round;stroke-miterlimit:10;" x1="352.563" y1="360.877" x2="352.708" y2="356.23"/>
		
			<line style="fill:none;stroke:#263238;stroke-linecap:round;stroke-linejoin:round;stroke-miterlimit:10;" x1="330.903" y1="360.987" x2="330.923" y2="353.906"/>
		
			<line style="fill:#FFFFFF;stroke:#263238;stroke-linecap:round;stroke-linejoin:round;stroke-miterlimit:10;" x1="286.045" y1="347.806" x2="286.771" y2="372.932"/>
		
			<line style="fill:none;stroke:#263238;stroke-linecap:round;stroke-linejoin:round;stroke-miterlimit:10;" x1="302.602" y1="371.625" x2="329.906" y2="375.111"/>
		
			<line style="fill:none;stroke:#263238;stroke-linecap:round;stroke-linejoin:round;stroke-miterlimit:10;" x1="302.166" y1="362.039" x2="302.021" y2="370.318"/>
		<polygon style="fill:none;stroke:#263238;stroke-linecap:round;stroke-linejoin:round;stroke-miterlimit:10;" points="
			229.549,346.499 230.275,358.699 284.157,366.542 284.012,353.616 		"/>
		<g>
			<polygon style="fill:#FFFFFF;stroke:#263238;stroke-linecap:round;stroke-linejoin:round;stroke-miterlimit:10;" points="
				268.695,361.294 274.847,362.213 274.847,365.886 268.695,365.151 			"/>
			<polygon style="fill:#FFFFFF;stroke:#263238;stroke-linecap:round;stroke-linejoin:round;stroke-miterlimit:10;" points="
				274.847,362.213 276.592,360.743 276.592,364.141 274.847,365.886 			"/>
			<polygon style="fill:#FFFFFF;stroke:#263238;stroke-linecap:round;stroke-linejoin:round;stroke-miterlimit:10;" points="
				276.592,360.743 270.439,359.917 268.695,361.294 274.847,362.213 			"/>
		</g>
		<polyline style="fill:none;stroke:#263238;stroke-linecap:round;stroke-linejoin:round;stroke-miterlimit:10;" points="
			227.643,375.111 225.556,339.164 376.302,358.877 375.838,395.983 		"/>
		
			<line style="fill:#FFFFFF;stroke:#263238;stroke-linecap:round;stroke-linejoin:round;stroke-miterlimit:10;" x1="374.446" y1="384.851" x2="227.875" y2="364.443"/>
		
			<line style="fill:#FFFFFF;stroke:#263238;stroke-linecap:round;stroke-linejoin:round;stroke-miterlimit:10;" x1="223.469" y1="363.747" x2="161.779" y2="354.702"/>
	</g>
</g>
<g id="Keyboard">
	<g>
		<polygon style="fill:#FFFFFF;stroke:#263238;stroke-linecap:round;stroke-linejoin:round;stroke-miterlimit:10;" points="
			145.974,373 397.345,410.472 363.621,465.742 84.771,414.844 		"/>
		<polygon style="fill:#FFFFFF;stroke:#263238;stroke-linecap:round;stroke-linejoin:round;stroke-miterlimit:10;" points="
			363.621,465.742 364.319,475.349 398.54,417.652 397.345,410.472 		"/>
		<polygon style="fill:#E8E8E8;stroke:#263238;stroke-linecap:round;stroke-linejoin:round;stroke-miterlimit:10;" points="
			363.621,465.742 84.771,414.844 85.093,422.777 364.319,475.349 		"/>
		<polygon style="fill:#DBDBDB;stroke:#263238;stroke-linecap:round;stroke-linejoin:round;stroke-miterlimit:10;" points="
			335.589,413.903 309.389,446.303 309.389,450.104 360.189,459.904 380.989,425.303 379.789,420.903 		"/>
		<polygon style="fill:#DBDBDB;stroke:#263238;stroke-linecap:round;stroke-linejoin:round;stroke-miterlimit:10;" points="
			309.389,446.303 359.589,454.704 379.789,420.903 335.589,413.903 		"/>
		<polygon style="fill:#DBDBDB;stroke:#263238;stroke-linecap:round;stroke-linejoin:round;stroke-miterlimit:10;" points="
			293.389,407.903 282.589,420.103 280.874,423.829 316.989,429.504 325.789,416.703 325.189,413.103 		"/>
		<polygon style="fill:#DBDBDB;stroke:#263238;stroke-linecap:round;stroke-linejoin:round;stroke-miterlimit:10;" points="
			301.989,399.503 297.389,403.503 295.589,407.103 328.612,412.556 333.389,408.103 331.989,404.503 		"/>
		<polygon style="fill:#DBDBDB;stroke:#263238;stroke-linecap:round;stroke-linejoin:round;stroke-miterlimit:10;" points="
			293.189,402.303 288.189,406.903 244.788,399.303 246.589,395.703 250.589,391.903 289.989,397.703 		"/>
		<polygon style="fill:#DBDBDB;stroke:#263238;stroke-linecap:round;stroke-linejoin:round;stroke-miterlimit:10;" points="
			243.788,393.903 238.788,399.703 197.788,392.903 199.388,387.503 204.588,384.703 241.788,390.303 		"/>
		<polygon style="fill:#DBDBDB;stroke:#263238;stroke-linecap:round;stroke-linejoin:round;stroke-miterlimit:10;" points="
			196.988,386.303 189.988,392.103 152.388,385.103 153.988,379.903 158.588,376.903 195.188,382.903 		"/>
		<polygon style="fill:#DBDBDB;stroke:#263238;stroke-linecap:round;stroke-linejoin:round;stroke-miterlimit:10;" points="
			282.589,407.103 127.988,382.303 100.388,401.903 99.988,403.703 93.988,407.903 92.788,412.503 107.567,415.215 115.388,410.703 
			121.388,411.503 118.188,417.503 227.589,437.103 233.988,431.303 243.188,432.504 239.188,439.303 258.589,443.103 
			286.183,411.618 		"/>
		<polygon style="fill:#FFFFFF;stroke:#263238;stroke-linecap:round;stroke-linejoin:round;stroke-miterlimit:10;" points="
			278.495,413.323 120.308,387.789 114.391,391.837 251.404,414.257 244.709,420.641 268.375,424.222 		"/>
		<polygon style="fill:#FFFFFF;stroke:#263238;stroke-linecap:round;stroke-linejoin:round;stroke-miterlimit:10;" points="
			246.421,415.347 241.595,420.018 127.937,400.712 132.919,396.975 		"/>
		<polygon style="fill:#FFFFFF;stroke:#263238;stroke-linecap:round;stroke-linejoin:round;stroke-miterlimit:10;" points="
			130.583,403.359 125.134,406.628 230.54,424.378 235.211,421.108 		"/>
		<polygon style="fill:#FFFFFF;stroke:#263238;stroke-linecap:round;stroke-linejoin:round;stroke-miterlimit:10;" points="
			218.085,425 213.414,428.582 226.648,431.228 230.852,427.336 		"/>
		<polyline style="fill:#FFFFFF;stroke:#263238;stroke-linecap:round;stroke-linejoin:round;stroke-miterlimit:10;" points="
			238.948,421.264 233.966,425.156 250.781,427.492 254.985,423.755 237.702,421.419 		"/>
		<polygon style="fill:#FFFFFF;stroke:#263238;stroke-linecap:round;stroke-linejoin:round;stroke-miterlimit:10;" points="
			258.721,424.689 254.362,428.582 261.991,429.516 265.883,425.935 		"/>
		<polygon style="fill:#FFFFFF;stroke:#263238;stroke-linecap:round;stroke-linejoin:round;stroke-miterlimit:10;" points="
			260.745,432.63 247.2,429.983 243.152,433.564 256.853,436.211 		"/>
		<polygon style="fill:#FFFFFF;stroke:#263238;stroke-linecap:round;stroke-linejoin:round;stroke-miterlimit:10;" points="
			213.258,424.689 208.899,428.426 136.656,415.036 141.482,412.078 		"/>
		<polygon style="fill:#FFFFFF;stroke:#263238;stroke-linecap:round;stroke-linejoin:round;stroke-miterlimit:10;" points="
			137.123,411.455 131.518,414.102 121.242,412.545 126.224,409.275 		"/>
		<polygon style="fill:#FFFFFF;stroke:#263238;stroke-linecap:round;stroke-linejoin:round;stroke-miterlimit:10;" points="
			126.38,402.424 121.397,405.383 100.388,401.903 105.983,398.688 		"/>
		<polygon style="fill:#FFFFFF;stroke:#263238;stroke-linecap:round;stroke-linejoin:round;stroke-miterlimit:10;" points="
			108.163,396.508 124.2,398.999 129.338,396.197 112.523,393.238 		"/>
		<polygon style="fill:#FFFFFF;stroke:#263238;stroke-linecap:round;stroke-linejoin:round;stroke-miterlimit:10;" points="
			97.732,405.383 111.744,407.407 106.139,409.742 93.988,407.903 		"/>
		<polygon style="fill:#FFFFFF;stroke:#263238;stroke-linecap:round;stroke-linejoin:round;stroke-miterlimit:10;" points="
			122.799,385.765 255.763,407.718 259.5,403.67 127.988,382.303 		"/>
		<polygon style="fill:#FFFFFF;stroke:#263238;stroke-linecap:round;stroke-linejoin:round;stroke-miterlimit:10;" points="
			262.614,403.982 258.877,408.03 279.273,411.143 282.589,407.103 		"/>
		<polygon style="fill:#FFFFFF;stroke:#263238;stroke-linecap:round;stroke-linejoin:round;stroke-miterlimit:10;" points="
			153.988,379.903 190.215,386.076 195.188,382.903 158.588,376.903 		"/>
		<polygon style="fill:#FFFFFF;stroke:#263238;stroke-linecap:round;stroke-linejoin:round;stroke-miterlimit:10;" points="
			199.388,387.503 237.08,393.861 241.788,390.303 204.588,384.703 		"/>
		<polygon style="fill:#FFFFFF;stroke:#263238;stroke-linecap:round;stroke-linejoin:round;stroke-miterlimit:10;" points="
			246.589,395.703 286.902,401.957 289.989,397.703 250.589,391.903 		"/>
		<g>
			<polygon style="fill:#FFFFFF;stroke:#263238;stroke-linecap:round;stroke-linejoin:round;stroke-miterlimit:10;" points="
				321.642,417.385 325.189,413.103 293.389,407.903 289.388,412.423 			"/>
			<polygon style="fill:#FFFFFF;stroke:#263238;stroke-linecap:round;stroke-linejoin:round;stroke-miterlimit:10;" points="
				287.267,414.818 282.589,420.103 315.218,425.139 319.448,420.033 			"/>
		</g>
		<polygon style="fill:#FFFFFF;stroke:#263238;stroke-linecap:round;stroke-linejoin:round;stroke-miterlimit:10;" points="
			297.389,403.503 326.989,408.227 331.989,404.503 301.989,399.503 		"/>
		<polygon style="fill:#FFFFFF;stroke:#263238;stroke-linecap:round;stroke-linejoin:round;stroke-miterlimit:10;" points="
			376.508,426.357 331.589,418.915 335.589,413.903 379.789,420.903 		"/>
		<polygon style="fill:#FFFFFF;stroke:#263238;stroke-linecap:round;stroke-linejoin:round;stroke-miterlimit:10;" points="
			374.749,428.386 330.507,420.945 326.177,425.816 363.113,431.769 358.784,437.857 368.119,439.616 		"/>
		<polygon style="fill:#FFFFFF;stroke:#263238;stroke-linecap:round;stroke-linejoin:round;stroke-miterlimit:10;" points="
			324.147,427.98 357.701,433.392 353.913,438.534 320.765,432.445 		"/>
		<polygon style="fill:#FFFFFF;stroke:#263238;stroke-linecap:round;stroke-linejoin:round;stroke-miterlimit:10;" points="
			318.871,434.881 352.56,440.428 349.448,444.487 315.894,438.534 		"/>
		<polygon style="fill:#FFFFFF;stroke:#263238;stroke-linecap:round;stroke-linejoin:round;stroke-miterlimit:10;" points="
			357.025,440.428 348.772,452.469 359.589,454.704 366.496,442.457 		"/>
		<polygon style="fill:#FFFFFF;stroke:#263238;stroke-linecap:round;stroke-linejoin:round;stroke-miterlimit:10;" points="
			347.96,446.922 343.63,452.063 309.389,446.303 314.135,441.51 		"/>
	</g>
</g>
</svg>
